<mxfile host="app.diagrams.net" agent="Mozilla/5.0 (Windows NT 10.0; Win64; x64) AppleWebKit/537.36 (KHTML, like Gecko) Chrome/138.0.0.0 Safari/537.36 Edg/138.0.0.0" version="27.2.0">
  <diagram name="Page-1" id="5f0bae14-7c28-e335-631c-24af17079c00">
    <mxGraphModel dx="1415" dy="982" grid="1" gridSize="10" guides="1" tooltips="1" connect="1" arrows="1" fold="1" page="1" pageScale="1" pageWidth="1100" pageHeight="850" background="none" math="0" shadow="0">
      <root>
        <mxCell id="0" />
        <mxCell id="1" parent="0" />
        <mxCell id="39150e848f15840c-1" value="Client Device" style="verticalAlign=top;align=left;spacingTop=8;spacingLeft=2;spacingRight=12;shape=cube;size=10;direction=south;fontStyle=4;html=1;rounded=0;shadow=0;comic=0;labelBackgroundColor=none;strokeWidth=1;fontFamily=Verdana;fontSize=12" parent="1" vertex="1">
          <mxGeometry x="270" y="70" width="190" height="220" as="geometry" />
        </mxCell>
        <mxCell id="39150e848f15840c-2" value="CI/CD Service" style="verticalAlign=top;align=left;spacingTop=8;spacingLeft=2;spacingRight=12;shape=cube;size=10;direction=south;fontStyle=4;html=1;rounded=0;shadow=0;comic=0;labelBackgroundColor=none;strokeWidth=1;fontFamily=Verdana;fontSize=12" parent="1" vertex="1">
          <mxGeometry x="530" y="70" width="330" height="220" as="geometry" />
        </mxCell>
        <mxCell id="39150e848f15840c-3" value="Application Server" style="verticalAlign=top;align=left;spacingTop=8;spacingLeft=2;spacingRight=12;shape=cube;size=10;direction=south;fontStyle=4;html=1;rounded=0;shadow=0;comic=0;labelBackgroundColor=none;strokeWidth=1;fontFamily=Verdana;fontSize=12" parent="1" vertex="1">
          <mxGeometry x="170" y="410" width="770" height="500" as="geometry" />
        </mxCell>
        <mxCell id="39150e848f15840c-5" value="Web Browser" style="shape=component;align=left;spacingLeft=36;rounded=0;shadow=0;comic=0;labelBackgroundColor=none;strokeWidth=1;fontFamily=Verdana;fontSize=12;html=1;" parent="1" vertex="1">
          <mxGeometry x="310" y="135" width="120" height="60" as="geometry" />
        </mxCell>
        <mxCell id="39150e848f15840c-7" value="GitHub Actions Pipeline" style="shape=component;align=left;spacingLeft=36;rounded=0;shadow=0;comic=0;labelBackgroundColor=none;strokeWidth=1;fontFamily=Verdana;fontSize=12;html=1;" parent="1" vertex="1">
          <mxGeometry x="560" y="135" width="200" height="65" as="geometry" />
        </mxCell>
        <mxCell id="9HCtXKp-x4gFbgPLNHG_-2" value="FastApi Container" style="verticalAlign=top;align=left;spacingTop=8;spacingLeft=2;spacingRight=12;shape=cube;size=10;direction=south;fontStyle=4;html=1;rounded=0;shadow=0;comic=0;labelBackgroundColor=none;strokeWidth=1;fontFamily=Verdana;fontSize=12" parent="1" vertex="1">
          <mxGeometry x="210" y="470" width="490" height="240" as="geometry" />
        </mxCell>
        <mxCell id="9HCtXKp-x4gFbgPLNHG_-6" value="FastAPI App&lt;br&gt;&lt;div&gt;- User Web Browser&lt;/div&gt;&lt;div&gt;- Admin Web Browser&lt;/div&gt;" style="shape=component;align=left;spacingLeft=36;rounded=0;shadow=0;comic=0;labelBackgroundColor=none;strokeWidth=1;fontFamily=Verdana;fontSize=12;html=1;" parent="1" vertex="1">
          <mxGeometry x="270" y="520" width="180" height="90" as="geometry" />
        </mxCell>
        <mxCell id="9HCtXKp-x4gFbgPLNHG_-7" value="Alembic Migrations" style="shape=component;align=left;spacingLeft=36;rounded=0;shadow=0;comic=0;labelBackgroundColor=none;strokeWidth=1;fontFamily=Verdana;fontSize=12;html=1;" parent="1" vertex="1">
          <mxGeometry x="520" y="630" width="160" height="60" as="geometry" />
        </mxCell>
        <mxCell id="9HCtXKp-x4gFbgPLNHG_-8" value="Database Container" style="verticalAlign=top;align=left;spacingTop=8;spacingLeft=2;spacingRight=12;shape=cube;size=10;direction=south;fontStyle=4;html=1;rounded=0;shadow=0;comic=0;labelBackgroundColor=none;strokeWidth=1;fontFamily=Verdana;fontSize=12" parent="1" vertex="1">
          <mxGeometry x="490" y="780" width="290" height="110" as="geometry" />
        </mxCell>
        <mxCell id="9HCtXKp-x4gFbgPLNHG_-9" value="PostgreSQL DB&lt;span style=&quot;color: rgba(0, 0, 0, 0); font-family: monospace; font-size: 0px;&quot;&gt;%3CmxGraphModel%3E%3Croot%3E%3CmxCell%20id%3D%220%22%2F%3E%3CmxCell%20id%3D%221%22%20parent%3D%220%22%2F%3E%3CmxCell%20id%3D%222%22%20value%3D%22Alembic%20Migrations%22%20style%3D%22shape%3Dcomponent%3Balign%3Dleft%3BspacingLeft%3D36%3Brounded%3D0%3Bshadow%3D0%3Bcomic%3D0%3BlabelBackgroundColor%3Dnone%3BstrokeWidth%3D1%3BfontFamily%3DVerdana%3BfontSize%3D12%3Bhtml%3D1%3B%22%20vertex%3D%221%22%20parent%3D%221%22%3E%3CmxGeometry%20x%3D%22520%22%20y%3D%22600%22%20width%3D%22160%22%20height%3D%2260%22%20as%3D%22geometry%22%2F%3E%3C%2FmxCell%3E%3C%2Froot%3E%3C%2FmxGraphModel%3E&lt;/span&gt;" style="shape=component;align=left;spacingLeft=36;rounded=0;shadow=0;comic=0;labelBackgroundColor=none;strokeWidth=1;fontFamily=Verdana;fontSize=12;html=1;" parent="1" vertex="1">
          <mxGeometry x="510" y="820" width="160" height="60" as="geometry" />
        </mxCell>
        <mxCell id="9HCtXKp-x4gFbgPLNHG_-12" style="edgeStyle=elbowEdgeStyle;rounded=0;html=1;labelBackgroundColor=none;startArrow=none;startFill=0;endArrow=classic;endFill=1;fontFamily=Verdana;fontSize=13;align=left;labelPosition=right;verticalLabelPosition=middle;verticalAlign=middle;" parent="1" edge="1">
          <mxGeometry relative="1" as="geometry">
            <mxPoint x="700" y="230" as="sourcePoint" />
            <mxPoint x="700" y="410" as="targetPoint" />
            <Array as="points">
              <mxPoint x="700" y="200" />
            </Array>
          </mxGeometry>
        </mxCell>
        <mxCell id="9HCtXKp-x4gFbgPLNHG_-13" value="&lt;span style=&quot;font-family: Verdana; font-size: 12px; text-align: left;&quot;&gt;Deploy Containers via Docker Compose&lt;/span&gt;" style="edgeLabel;html=1;align=center;verticalAlign=middle;resizable=0;points=[];labelBackgroundColor=default;" parent="9HCtXKp-x4gFbgPLNHG_-12" vertex="1" connectable="0">
          <mxGeometry x="0.0929" y="5" relative="1" as="geometry">
            <mxPoint x="125" y="28" as="offset" />
          </mxGeometry>
        </mxCell>
        <mxCell id="39150e848f15840c-14" style="edgeStyle=elbowEdgeStyle;rounded=0;html=1;labelBackgroundColor=none;startArrow=none;startFill=0;endArrow=classic;endFill=1;fontFamily=Verdana;fontSize=13;align=left;labelPosition=right;verticalLabelPosition=middle;verticalAlign=middle;exitX=0.5;exitY=1;exitDx=0;exitDy=0;" parent="1" source="39150e848f15840c-5" target="9HCtXKp-x4gFbgPLNHG_-6" edge="1">
          <mxGeometry relative="1" as="geometry">
            <mxPoint x="370" y="230" as="sourcePoint" />
            <mxPoint x="370" y="410" as="targetPoint" />
            <Array as="points">
              <mxPoint x="370" y="200" />
            </Array>
          </mxGeometry>
        </mxCell>
        <mxCell id="9HCtXKp-x4gFbgPLNHG_-11" value="HTTP (REST API)" style="edgeLabel;html=1;align=center;verticalAlign=middle;resizable=0;points=[];" parent="39150e848f15840c-14" vertex="1" connectable="0">
          <mxGeometry x="0.0929" y="5" relative="1" as="geometry">
            <mxPoint x="45" y="-32" as="offset" />
          </mxGeometry>
        </mxCell>
        <mxCell id="9HCtXKp-x4gFbgPLNHG_-14" value="" style="endArrow=classic;html=1;rounded=0;exitX=1;exitY=0.971;exitDx=0;exitDy=0;exitPerimeter=0;entryX=0.085;entryY=0.019;entryDx=0;entryDy=0;entryPerimeter=0;" parent="1" source="9HCtXKp-x4gFbgPLNHG_-6" target="9HCtXKp-x4gFbgPLNHG_-7" edge="1">
          <mxGeometry width="50" height="50" relative="1" as="geometry">
            <mxPoint x="420" y="550" as="sourcePoint" />
            <mxPoint x="470" y="500" as="targetPoint" />
          </mxGeometry>
        </mxCell>
        <mxCell id="9HCtXKp-x4gFbgPLNHG_-15" value="Apply DB Migrations" style="edgeLabel;html=1;align=center;verticalAlign=middle;resizable=0;points=[];" parent="9HCtXKp-x4gFbgPLNHG_-14" vertex="1" connectable="0">
          <mxGeometry x="-0.4033" relative="1" as="geometry">
            <mxPoint x="77" as="offset" />
          </mxGeometry>
        </mxCell>
        <mxCell id="9HCtXKp-x4gFbgPLNHG_-16" value="" style="endArrow=classic;html=1;rounded=0;exitX=0.25;exitY=1;exitDx=0;exitDy=0;entryX=0.75;entryY=0;entryDx=0;entryDy=0;" parent="1" source="9HCtXKp-x4gFbgPLNHG_-7" target="9HCtXKp-x4gFbgPLNHG_-9" edge="1">
          <mxGeometry width="50" height="50" relative="1" as="geometry">
            <mxPoint x="420" y="550" as="sourcePoint" />
            <mxPoint x="470" y="500" as="targetPoint" />
          </mxGeometry>
        </mxCell>
        <mxCell id="9HCtXKp-x4gFbgPLNHG_-17" value="Update Schema&amp;nbsp;" style="edgeLabel;html=1;align=center;verticalAlign=middle;resizable=0;points=[];" parent="9HCtXKp-x4gFbgPLNHG_-16" vertex="1" connectable="0">
          <mxGeometry x="-0.2498" y="1" relative="1" as="geometry">
            <mxPoint x="-57" as="offset" />
          </mxGeometry>
        </mxCell>
        <mxCell id="9HCtXKp-x4gFbgPLNHG_-18" value="" style="endArrow=classic;html=1;rounded=0;exitX=1;exitY=0.25;exitDx=0;exitDy=0;entryX=0.987;entryY=-0.017;entryDx=0;entryDy=0;entryPerimeter=0;edgeStyle=orthogonalEdgeStyle;curved=1;" parent="1" source="9HCtXKp-x4gFbgPLNHG_-6" target="9HCtXKp-x4gFbgPLNHG_-9" edge="1">
          <mxGeometry width="50" height="50" relative="1" as="geometry">
            <mxPoint x="420" y="550" as="sourcePoint" />
            <mxPoint x="470" y="500" as="targetPoint" />
            <Array as="points">
              <mxPoint x="470" y="543" />
              <mxPoint x="470" y="510" />
              <mxPoint x="780" y="510" />
              <mxPoint x="780" y="819" />
            </Array>
          </mxGeometry>
        </mxCell>
        <mxCell id="9HCtXKp-x4gFbgPLNHG_-20" value="SQL Queries" style="edgeLabel;html=1;align=center;verticalAlign=middle;resizable=0;points=[];" parent="9HCtXKp-x4gFbgPLNHG_-18" vertex="1" connectable="0">
          <mxGeometry x="0.2242" y="-9" relative="1" as="geometry">
            <mxPoint x="39" y="-1" as="offset" />
          </mxGeometry>
        </mxCell>
        <mxCell id="PhKpwEwChCE_AQTl-oep-1" value="OpenRouter Service" style="verticalAlign=top;align=left;spacingTop=8;spacingLeft=2;spacingRight=12;shape=cube;size=10;direction=south;fontStyle=4;html=1;rounded=0;shadow=0;comic=0;labelBackgroundColor=none;strokeWidth=1;fontFamily=Verdana;fontSize=12" vertex="1" parent="1">
          <mxGeometry x="1060" y="430" width="190" height="110" as="geometry" />
        </mxCell>
        <mxCell id="PhKpwEwChCE_AQTl-oep-2" value="AI API" style="shape=component;align=left;spacingLeft=36;rounded=0;shadow=0;comic=0;labelBackgroundColor=none;strokeWidth=1;fontFamily=Verdana;fontSize=12;html=1;" vertex="1" parent="1">
          <mxGeometry x="1070" y="470" width="120" height="60" as="geometry" />
        </mxCell>
        <mxCell id="PhKpwEwChCE_AQTl-oep-3" value="" style="endArrow=classic;html=1;rounded=0;exitX=0.75;exitY=0;exitDx=0;exitDy=0;entryX=0;entryY=0;entryDx=10;entryDy=190;entryPerimeter=0;edgeStyle=orthogonalEdgeStyle;curved=1;" edge="1" parent="1" source="9HCtXKp-x4gFbgPLNHG_-6" target="PhKpwEwChCE_AQTl-oep-1">
          <mxGeometry width="50" height="50" relative="1" as="geometry">
            <mxPoint x="580" y="730" as="sourcePoint" />
            <mxPoint x="650" y="860" as="targetPoint" />
          </mxGeometry>
        </mxCell>
        <mxCell id="PhKpwEwChCE_AQTl-oep-4" value="API Requests" style="edgeLabel;html=1;align=center;verticalAlign=middle;resizable=0;points=[];" vertex="1" connectable="0" parent="PhKpwEwChCE_AQTl-oep-3">
          <mxGeometry x="-0.2498" y="1" relative="1" as="geometry">
            <mxPoint x="-57" as="offset" />
          </mxGeometry>
        </mxCell>
      </root>
    </mxGraphModel>
  </diagram>
</mxfile>
